# xmcd
#
# Track frame offsets:
#	150
#	64227
#	112038
#	162743
#	210449
#	263464
#
# Disc length: 4028 seconds
#
# Revision: 1
# Processed by: cddbd v1.5.2PL0 Copyright (c) Steve Scherf et al.
# Submitted via: audiograbber 1.83.01
#
DISCID=520fba06
DTITLE=Grateful Dead - 79-08-13 McNichols Sports Arena, Denver CO
DYEAR=1900
DGENRE=
TTITLE0=He's Gone
TTITLE1=The Other One
TTITLE2=Drums
TTITLE3=Wharf Rat
TTITLE4=Truckin' > Nobody's Fault Jam > Truckin'
TTITLE5=Sugar Magnolia
EXTD=
EXTT0=
EXTT1=
EXTT2=
EXTT3=
EXTT4=
EXTT5=
PLAYORDER=
